# xmcd
#
# Track frame offsets: 
#        150
#        24782
#        36304
#        62929
#        86893
#        108752
#        130614
#        155903
#        174152
#        194927
#        218590
#        244015
#        266338
#        306186
#
# Disc length: 4487 seconds
#
# Revision: 0
# Processed by: cddbd v1.5.2PL0 Copyright (c) Steve Scherf et al.
# Submitted via: ExactAudioCopyFreeDBPlugin 1.0
#
DISCID=be11850e
DTITLE=King, B.B. - United Western Recorders, Hollywood
DYEAR=1972
DGENRE=Blues
TTITLE0=Everyday I Have The Blues
TTITLE1=How Blue Can You Get?
TTITLE2=Just A Little Love
TTITLE3=I Get Some Outside Help I Don't Need
TTITLE4=Ghetto Woman
TTITLE5=Nobody Loves Me But My Mother - Don't Answer The Door
TTITLE6=Rock Me Baby
TTITLE7=Ain't That Just Like A Woman
TTITLE8=Hummingbird
TTITLE9=Walking Dr. Bill
TTITLE10=Ain't Nobody Home
TTITLE11=The Thrill Is Gone
TTITLE12=Instrumental
TTITLE13=Guess Who
EXTD=
EXTT0=
EXTT1=
EXTT2=
EXTT3=
EXTT4=
EXTT5=
EXTT6=
EXTT7=
EXTT8=
EXTT9=
EXTT10=
EXTT11=
EXTT12=
EXTT13=
PLAYORDER=
